HIERARCHY
ROOT joint_Root
{
	OFFSET 0.0 0.0 0.0
	CHANNELS 6 Xposition Yposition Zposition Zrotation Xrotation Yrotation 
	JOINT Hips
	{
		OFFSET -17.1583 93.1646 452.98
		CHANNELS 6 Xposition Yposition Zposition Zrotation Xrotation Yrotation 
		JOINT Spine
		{
			OFFSET 15.7357 0.0 0.0
			CHANNELS 6 Xposition Yposition Zposition Zrotation Xrotation Yrotation 
			JOINT Chest
			{
				OFFSET 8.98455 -0.406207 0.0
				CHANNELS 6 Xposition Yposition Zposition Zrotation Xrotation Yrotation 
				JOINT Neck
				{
					OFFSET 16.3773 0.0 0.0
					CHANNELS 6 Xposition Yposition Zposition Zrotation Xrotation Yrotation 
					JOINT Head
					{
						OFFSET 6.45672 0.0 0.0
						CHANNELS 6 Xposition Yposition Zposition Zrotation Xrotation Yrotation 
						End Site
						{
							OFFSET 0.0 0.0 0.0
						}
					}
				}
				JOINT Shoulder_L
				{
					OFFSET 12.9942 -0.242716 4.98039
					CHANNELS 6 Xposition Yposition Zposition Zrotation Xrotation Yrotation 
					JOINT UpperArm_L
					{
						OFFSET 5.34809 0.0 0.0
						CHANNELS 6 Xposition Yposition Zposition Zrotation Xrotation Yrotation 
						JOINT LowerArm_L
						{
							OFFSET 24.3286 1.87007e-05 0.0
							CHANNELS 6 Xposition Yposition Zposition Zrotation Xrotation Yrotation 
							JOINT Hand_L
							{
								OFFSET 22.2916 0.0 0.0
								CHANNELS 6 Xposition Yposition Zposition Zrotation Xrotation Yrotation 
								End Site
								{
									OFFSET 0.0 0.0 0.0
								}
							}
						}
					}
				}
				JOINT Shoulder_R
				{
					OFFSET 12.9945 -0.242716 -4.98039
					CHANNELS 6 Xposition Yposition Zposition Zrotation Xrotation Yrotation 
					JOINT UpperArm_R
					{
						OFFSET -5.34813 0.0 0.0
						CHANNELS 6 Xposition Yposition Zposition Zrotation Xrotation Yrotation 
						JOINT LowerArm_R
						{
							OFFSET -24.3289 0.000322201 0.0
							CHANNELS 6 Xposition Yposition Zposition Zrotation Xrotation Yrotation 
							JOINT Hand_R
							{
								OFFSET -22.2915 -0.000108084 0.0
								CHANNELS 6 Xposition Yposition Zposition Zrotation Xrotation Yrotation 
								End Site
								{
									OFFSET 0.0 0.0 0.0
								}
							}
						}
					}
				}
			}
		}
		JOINT UpperLeg_L
		{
			OFFSET -2.19248 -6.46944 0.0
			CHANNELS 6 Xposition Yposition Zposition Zrotation Xrotation Yrotation 
			JOINT LowerLeg_L
			{
				OFFSET 39.0811 0.0 -1.23785e-05
				CHANNELS 6 Xposition Yposition Zposition Zrotation Xrotation Yrotation 
				JOINT Foot_L
				{
					OFFSET 40.9854 0.0 -1.26872e-05
					CHANNELS 6 Xposition Yposition Zposition Zrotation Xrotation Yrotation 
					JOINT Toes_L
					{
						OFFSET 11.7543 0.0 0.0
						CHANNELS 6 Xposition Yposition Zposition Zrotation Xrotation Yrotation 
						End Site
						{
							OFFSET 0.0 0.0 0.0
						}
					}
				}
			}
		}
		JOINT UpperLeg_R
		{
			OFFSET -2.19251 6.46944 0.0
			CHANNELS 6 Xposition Yposition Zposition Zrotation Xrotation Yrotation 
			JOINT LowerLeg_R
			{
				OFFSET -39.0811 -0.00228153 -0.0401928
				CHANNELS 6 Xposition Yposition Zposition Zrotation Xrotation Yrotation 
				JOINT Foot_R
				{
					OFFSET -40.9854 0.0 0.0
					CHANNELS 6 Xposition Yposition Zposition Zrotation Xrotation Yrotation 
					JOINT Toes_R
					{
						OFFSET -11.7543 0.0 0.0
						CHANNELS 6 Xposition Yposition Zposition Zrotation Xrotation Yrotation 
						End Site
						{
							OFFSET 0.0 0.0 0.0
						}
					}
				}
			}
		}
	}
}
MOTION
Frames:	5
Frame Time:	0.0333333
0.000000 0.000000 0.000000 0.000000 0.000000 -0.000000 -3.760510 91.639500 0.564078 85.633600 -1.497700 7.395720 15.735700 0.000005 -0.000001 92.118200 85.783100 -90.433800 8.984550 -0.406207 -0.000000 0.661250 0.207228 3.365080 16.377300 -0.000001 -0.000001 13.446100 0.758805 -13.972300 6.456720 -0.000001 -0.000000 -6.881040 1.697920 -22.807000 12.994200 -0.242716 4.980390 -93.589800 9.068920 -68.296700 5.348090 -0.000007 -0.000001 -70.924100 0.625163 -10.976200 24.328600 0.000019 0.000005 39.660800 -40.194200 -127.899000 22.291600 -0.000001 0.000005 42.838100 5.141850 4.137270 12.994500 -0.242716 -4.980390 87.831900 5.808340 -69.489800 -5.348130 -0.000001 -0.000004 -69.405500 33.942100 -5.601030 -24.328900 0.000322 -0.000009 1.030410 3.582640 -16.072900 -22.291500 -0.000108 -0.000004 -2.429890 5.288980 0.379119 -2.192480 -6.469440 -0.000000 -174.624000 2.251800 0.777052 39.081100 -0.000007 -0.000012 0.387949 -0.728290 28.044500 40.985400 -0.000006 -0.000013 0.532148 3.752770 -77.082000 11.754300 -0.000000 0.000003 -0.000680 0.178379 -9.341220 -2.192510 6.469440 -0.000001 -171.670000 7.862360 -172.663000 -39.081100 -0.002282 -0.040193 0.165639 -0.537861 16.792700 -40.985400 0.000008 0.000006 6.233970 2.375910 -72.849000 -11.754300 -0.000006 -0.000006 -0.012065 0.286141 -4.943750
0.000000 0.000000 0.000000 0.000000 0.000000 -0.000000 -3.768110 91.639200 0.553544 85.672500 -1.416880 7.392080 15.735700 0.000005 -0.000001 91.925300 85.775000 -90.232200 8.984550 -0.406207 -0.000000 0.678903 0.179134 3.382580 16.377300 -0.000001 -0.000001 13.452900 0.749282 -13.899600 6.456720 -0.000001 -0.000000 -6.901910 1.746710 -22.721900 12.994200 -0.242716 4.980390 -93.589500 9.071010 -68.303100 5.348090 -0.000007 -0.000001 -70.812300 0.259897 -10.980400 24.328600 0.000019 0.000005 39.368900 -39.853400 -127.990000 22.291600 -0.000001 0.000005 42.523000 5.150710 3.925830 12.994500 -0.242716 -4.980390 87.809500 5.863270 -69.472700 -5.348130 -0.000001 -0.000004 -69.669000 33.965600 -5.350930 -24.328900 0.000322 -0.000009 1.065280 3.709150 -16.051500 -22.291500 -0.000108 -0.000004 -2.580530 5.292190 0.290228 -2.192480 -6.469440 -0.000000 -174.647000 2.264250 0.748592 39.081100 -0.000007 -0.000012 0.385225 -0.723665 28.028400 40.985400 -0.000006 -0.000013 0.554587 3.851700 -76.986400 11.754300 -0.000000 0.000003 -0.000539 0.176258 -9.427390 -2.192510 6.469440 -0.000001 -171.732000 8.020200 -172.677000 -39.081100 -0.002282 -0.040193 0.166436 -0.540560 16.790900 -40.985400 0.000008 0.000006 6.339590 2.439850 -72.853700 -11.754300 -0.000006 -0.000006 -0.011831 0.284510 -5.010530
0.000000 0.000000 0.000000 0.000000 0.000000 -0.000000 -3.760550 91.656600 0.535148 85.724200 -1.366670 7.367010 15.735700 0.000005 -0.000001 91.766100 85.773200 -90.058700 8.984550 -0.406207 -0.000000 0.683515 0.154971 3.411210 16.377300 -0.000001 -0.000001 13.494400 0.767329 -13.819000 6.456720 -0.000001 -0.000000 -6.983650 1.802110 -22.608200 12.994200 -0.242716 4.980390 -93.626200 9.156590 -68.285300 5.348090 -0.000007 -0.000001 -70.648000 -0.093424 -10.959500 24.328600 0.000019 0.000005 39.489400 -39.728700 -127.799000 22.291600 -0.000001 0.000005 42.609300 5.144440 4.075790 12.994500 -0.242716 -4.980390 87.795600 5.892790 -69.447500 -5.348130 -0.000001 -0.000004 -69.896700 34.076400 -5.140030 -24.328900 0.000322 -0.000009 1.027150 3.572170 -16.070100 -22.291500 -0.000108 -0.000004 -2.517280 5.293640 0.249292 -2.192480 -6.469440 -0.000000 -174.702000 2.307350 0.763592 39.081100 -0.000007 -0.000012 0.379472 -0.716524 27.906700 40.985400 -0.000006 -0.000013 0.549120 3.842720 -76.900000 11.754300 -0.000000 0.000003 -0.000455 0.174961 -9.480060 -2.192510 6.469440 -0.000001 -171.761000 7.922450 -172.707000 -39.081100 -0.002282 -0.040193 0.164670 -0.535879 16.756300 -40.985400 0.000008 0.000006 6.235080 2.329720 -72.814800 -11.754300 -0.000006 -0.000006 -0.011907 0.285040 -4.988820
0.000000 0.000000 0.000000 0.000000 0.000000 -0.000000 -3.749390 91.665800 0.490537 85.742700 -1.388760 7.337830 15.735700 0.000005 -0.000001 91.915600 85.762600 -90.185700 8.984550 -0.406207 -0.000000 0.703676 0.176628 3.456090 16.377300 -0.000001 -0.000001 13.479900 0.765463 -13.701900 6.456720 -0.000001 -0.000000 -7.051510 1.810740 -22.463900 12.994200 -0.242716 4.980390 -93.633900 9.171500 -68.275200 5.348090 -0.000007 -0.000001 -70.600000 -0.572782 -10.856800 24.328600 0.000019 0.000005 39.532900 -39.546100 -127.649000 22.291600 -0.000001 0.000005 42.594900 5.134930 4.301040 12.994500 -0.242716 -4.980390 87.764200 5.965060 -69.409300 -5.348130 -0.000001 -0.000004 -70.004800 34.142700 -4.998340 -24.328900 0.000322 -0.000009 1.005040 3.484510 -16.116200 -22.291500 -0.000108 -0.000004 -2.688670 5.292940 0.269593 -2.192480 -6.469440 -0.000000 -174.718000 2.235140 0.717685 39.081100 -0.000007 -0.000012 0.379689 -0.717851 27.876400 40.985400 -0.000006 -0.000013 0.557074 3.849970 -76.838400 11.754300 -0.000000 0.000003 -0.000411 0.174274 -9.507990 -2.192510 6.469440 -0.000001 -171.695000 7.661900 -172.759000 -39.081100 -0.002282 -0.040193 0.165306 -0.539061 16.724900 -40.985400 0.000008 0.000006 6.238040 2.027720 -72.754800 -11.754300 -0.000006 -0.000006 -0.012030 0.285894 -4.953850
0.000000 0.000000 0.000000 0.000000 0.000000 -0.000000 -3.738200 91.684100 0.450953 85.765900 -1.362930 7.308060 15.735700 0.000005 -0.000001 91.809400 85.750300 -90.049400 8.984550 -0.406207 -0.000000 0.729098 0.160246 3.516350 16.377300 -0.000001 -0.000001 13.458500 0.788099 -13.583300 6.456720 -0.000001 -0.000000 -7.096440 1.850430 -22.383000 12.994200 -0.242716 4.980390 -93.656100 9.227460 -68.274100 5.348090 -0.000007 -0.000001 -70.577200 -1.137520 -10.670700 24.328600 0.000019 0.000005 39.363600 -39.094900 -127.550000 22.291600 -0.000001 0.000005 42.654400 5.133380 4.337120 12.994500 -0.242716 -4.980390 87.751400 5.997880 -69.404600 -5.348130 -0.000001 -0.000004 -70.095700 34.132400 -4.958460 -24.328900 0.000322 -0.000009 1.038040 3.610120 -16.069000 -22.291500 -0.000108 -0.000004 -2.710130 5.292960 0.268958 -2.192480 -6.469440 -0.000000 -174.750000 2.256000 0.687507 39.081100 -0.000007 -0.000012 0.377238 -0.715510 27.800400 40.985400 -0.000006 -0.000013 0.565088 3.861930 -76.790600 11.754300 -0.000000 0.000003 -0.000539 0.176247 -9.427840 -2.192510 6.469440 -0.000001 -171.757000 7.724560 -172.818000 -39.081100 -0.002282 -0.040193 0.162315 -0.529239 16.721000 -40.985400 0.000008 0.000006 6.107370 2.166190 -72.695100 -11.754300 -0.000006 -0.000006 -0.011545 0.282511 -5.092390
